# Blender v2.81 (sub 16) OBJ File: 'Turret.blend'
# www.blender.org
o Base_Cube.001
v 0.066094 -0.035415 0.514096
v -0.514096 -0.035415 0.066094
v 0.514096 -0.035415 -0.066094
v -0.066094 -0.035415 -0.514096
v -0.495861 -0.046929 0.495861
v -0.495861 0.046929 0.495861
v -0.495861 -0.046929 -0.495861
v -0.495861 0.046929 -0.495861
v 0.495861 -0.046929 0.495861
v 0.495861 0.046929 0.495861
v 0.495861 -0.046929 -0.495861
v 0.495861 0.046929 -0.495861
v 0.333333 -0.046929 -1.000000
v -0.333333 -0.046929 -1.000000
v -0.333333 0.046929 -1.000000
v 0.333333 0.046929 -1.000000
v -0.333333 -0.046929 1.000000
v 0.333333 -0.046929 1.000000
v 0.333333 0.046929 1.000000
v -0.333333 0.046929 1.000000
v -1.000000 -0.046929 -0.333333
v -1.000000 -0.046929 0.333333
v -1.000000 0.046929 0.333333
v -1.000000 0.046929 -0.333333
v 1.000000 -0.046929 0.333333
v 1.000000 -0.046929 -0.333333
v 1.000000 0.046929 -0.333333
v 1.000000 0.046929 0.333333
v 0.333333 0.046929 -0.333333
v 0.333333 0.046929 0.333333
v -0.333333 0.046929 -0.333333
v -0.333333 0.046929 0.333333
v -0.333333 -0.046929 -0.333333
v -0.333333 -0.046929 0.333333
v 0.333333 -0.046929 -0.333333
v 0.333333 -0.046929 0.333333
v -0.333333 0.064608 -1.000000
v 0.333333 0.064608 -1.000000
v 0.333333 0.064608 1.000000
v -0.333333 0.064608 1.000000
v 0.223079 0.233864 0.223079
v -0.223079 0.233864 0.223079
v -1.000000 0.064608 0.333333
v -1.000000 0.064608 -0.333333
v 1.000000 0.064608 -0.333333
v 1.000000 0.064608 0.333333
v 0.223079 0.233864 -0.223079
v -0.223079 0.233864 -0.223079
v 0.514096 -0.046929 0.066094
v 0.514096 0.170464 0.066094
v 0.893382 0.087835 0.066094
v 0.893382 -0.046929 0.066094
v 1.000000 0.064608 0.066094
v 1.000000 0.046929 0.066094
v 1.000000 -0.046929 0.066094
v 0.066094 0.170464 0.514096
v 0.066094 -0.046929 0.514096
v -0.066094 -0.046929 0.514096
v -0.066094 0.170464 0.514096
v 0.066094 -0.046929 0.893382
v 0.066094 0.087835 0.893382
v 0.066094 0.046929 1.000000
v 0.066094 0.064608 1.000000
v 0.066094 -0.046929 1.000000
v -0.066094 -0.046929 0.893382
v -0.066094 0.087835 0.893382
v -0.066094 0.046929 1.000000
v -0.066094 0.064608 1.000000
v -0.066094 -0.046929 1.000000
v -0.514096 -0.046929 0.066094
v -0.514096 0.170464 0.066094
v -0.893382 -0.046929 0.066094
v -0.893382 0.087835 0.066094
v -1.000000 -0.046929 -0.066094
v -0.893382 -0.046929 -0.066094
v -1.000000 0.046929 -0.066094
v -1.000000 0.064608 -0.066094
v -0.893382 0.087835 -0.066094
v -1.000000 -0.046929 0.066094
v -1.000000 0.046929 0.066094
v -1.000000 0.064608 0.066094
v 1.000000 0.064608 -0.066094
v 0.893382 0.087835 -0.066094
v 1.000000 0.046929 -0.066094
v 1.000000 -0.046929 -0.066094
v 0.893382 -0.046929 -0.066094
v 0.514096 -0.046929 -0.066094
v 0.514096 0.170464 -0.066094
v -0.514096 0.170464 -0.066094
v -0.514096 -0.046929 -0.066094
v -0.066094 0.170464 -0.514096
v 0.066094 -0.046929 -0.514096
v 0.066094 0.170464 -0.514096
v 0.066094 -0.046929 -0.893382
v 0.066094 0.087835 -0.893382
v -0.066094 -0.046929 -0.514096
v -0.066094 -0.046929 -0.893382
v -0.066094 0.087835 -0.893382
v -0.066094 -0.046929 -1.000000
v -0.066094 0.064608 -1.000000
v -0.066094 0.046929 -1.000000
v 0.066094 -0.046929 -1.000000
v 0.066094 0.064608 -1.000000
v 0.066094 0.046929 -1.000000
v 0.000000 -0.006755 -0.441917
v 0.000000 0.215288 -0.441917
v 0.312482 -0.006755 -0.312482
v 0.312482 0.215288 -0.312482
v 0.441917 -0.006755 0.000000
v 0.441917 0.215288 0.000000
v 0.312482 -0.006755 0.312482
v 0.312482 0.215288 0.312482
v -0.000000 -0.006755 0.441917
v -0.000000 0.215288 0.441917
v -0.312482 -0.006755 0.312482
v -0.312482 0.215288 0.312482
v -0.441917 -0.006755 -0.000000
v -0.441917 0.215288 -0.000000
v -0.312482 -0.006755 -0.312482
v -0.312482 0.215288 -0.312482
v 0.312482 0.257257 -0.312482
v -0.000000 0.257257 -0.441917
v 0.441917 0.257257 0.000000
v 0.312482 0.257257 0.312482
v -0.000000 0.257257 0.441917
v -0.312482 0.257257 0.312482
v -0.441917 0.257257 -0.000000
v -0.312482 0.257257 -0.312482
v 0.327091 0.223285 -0.327091
v 0.000000 0.223285 -0.462577
v 0.462577 0.223285 0.000000
v 0.327091 0.223285 0.327091
v -0.000000 0.223285 0.462577
v -0.327091 0.223285 0.327091
v -0.462577 0.223285 -0.000000
v -0.327091 0.223285 -0.327091
v 0.327091 0.249259 -0.327091
v 0.000000 0.249259 -0.462577
v 0.462577 0.249259 0.000000
v 0.327091 0.249259 0.327091
v -0.000000 0.249259 0.462577
v -0.327091 0.249259 0.327091
v -0.462577 0.249259 -0.000000
v -0.327091 0.249259 -0.327091
vt 0.965695 0.453004
vt 0.931055 0.449982
vt 0.965695 0.395950
vt 0.702268 0.916948
vt 0.736817 0.919971
vt 0.702268 0.974022
vt 0.680844 0.972674
vt 0.646295 0.969651
vt 0.680844 0.915600
vt 0.892973 0.386482
vt 0.927613 0.389504
vt 0.892973 0.443536
vt 0.373064 0.750000
vt 0.433296 0.750000
vt 0.496595 0.873762
vt 0.499684 0.578289
vt 0.559915 0.578289
vt 0.623215 0.702051
vt 0.725905 0.125000
vt 0.786137 0.125000
vt 0.849436 0.248762
vt 0.249533 0.873762
vt 0.249533 0.934107
vt 0.126002 0.997525
vt 0.357040 0.833169
vt 0.332547 0.857709
vt 0.126002 0.750000
vt 0.142026 0.666831
vt 0.166520 0.642292
vt 0.249533 0.626238
vt 0.065770 0.750000
vt 0.002471 0.873762
vt 0.142026 0.833169
vt 0.684682 0.578289
vt 0.624450 0.578289
vt 0.747981 0.454527
vt 0.809448 0.578289
vt 0.749217 0.578289
vt 0.872748 0.454527
vt 0.249533 0.565893
vt 0.126002 0.502475
vt 0.332546 0.642291
vt 0.357040 0.666831
vt 0.249533 0.167174
vt 0.249533 0.332826
vt 0.166861 0.250000
vt 0.931055 0.453004
vt 0.927843 0.803504
vt 0.927843 0.831496
vt 0.903256 0.831496
vt 0.927864 0.932087
vt 0.927864 0.960005
vt 0.903268 0.960005
vt 0.931055 0.395950
vt 0.950031 0.229060
vt 0.950031 0.257051
vt 0.925445 0.257051
vt 0.656493 0.447156
vt 0.505188 0.384366
vt 0.567860 0.232778
vt 0.950086 0.860688
vt 0.956173 0.832770
vt 0.960806 0.832770
vt 0.736817 0.916948
vt 0.736817 0.974022
vt 0.646295 0.972674
vt 0.646295 0.915600
vt 0.927613 0.386482
vt 0.927613 0.443536
vt 0.496595 0.626238
vt 0.623215 0.454527
vt 0.849436 0.001238
vt 0.373064 0.997525
vt 0.447077 0.923374
vt 0.427321 0.903581
vt 0.422583 0.947913
vt 0.402827 0.928120
vt 0.002471 0.626238
vt 0.051989 0.576626
vt 0.071745 0.596419
vt 0.076483 0.552087
vt 0.096239 0.571880
vt 0.051989 0.923374
vt 0.071745 0.903581
vt 0.166520 0.857709
vt 0.076483 0.947913
vt 0.096239 0.928121
vt 0.747981 0.702051
vt 0.872748 0.702051
vt 0.373064 0.502475
vt 0.422583 0.552087
vt 0.402827 0.571880
vt 0.447077 0.576626
vt 0.427321 0.596419
vt 0.332205 0.250000
vt 0.898625 0.831496
vt 0.892541 0.803504
vt 0.870896 0.703927
vt 0.924826 0.703927
vt 0.927843 0.703927
vt 0.898636 0.960005
vt 0.892549 0.932087
vt 0.870896 0.832770
vt 0.924846 0.832770
vt 0.927864 0.832770
vt 0.920814 0.257051
vt 0.914730 0.229060
vt 0.893085 0.129482
vt 0.947015 0.129482
vt 0.950031 0.129482
vt 0.656493 0.232778
vt 0.719166 0.295568
vt 0.719166 0.384366
vt 0.567860 0.447156
vt 0.505188 0.295568
vt 0.985401 0.832770
vt 0.985401 0.860688
vt 0.985401 0.960005
vt 0.928433 0.960005
vt 0.975281 0.133240
vt 0.999866 0.000663
vt 0.999866 0.133024
vt 0.931005 0.589058
vt 0.955600 0.453965
vt 0.955600 0.589058
vt 0.950460 0.390930
vt 0.975046 0.258352
vt 0.975046 0.390714
vt 0.975035 0.000675
vt 0.950439 0.135769
vt 0.950439 0.000675
vt 0.621381 0.915664
vt 0.645977 0.915664
vt 0.621381 0.985642
vt 0.524030 0.998146
vt 0.548626 0.869219
vt 0.548626 0.998146
vt 0.499189 0.998146
vt 0.523784 0.869219
vt 0.523785 0.998146
vt 0.839882 0.982882
vt 0.815287 0.982882
vt 0.839882 0.912904
vt 0.955846 0.586314
vt 0.980432 0.454168
vt 0.980432 0.586529
vt 0.975292 0.390714
vt 0.999877 0.258568
vt 0.999877 0.390930
vt 0.932904 0.632777
vt 0.957491 0.632777
vt 0.932904 0.702938
vt 0.843425 0.332859
vt 0.786182 0.414898
vt 0.785260 0.332859
vt 0.499357 0.867756
vt 0.557543 0.783476
vt 0.557543 0.867756
vt 0.499357 0.783476
vt 0.557543 0.704107
vt 0.784669 0.250820
vt 0.725583 0.332859
vt 0.726505 0.250820
vt 0.783747 0.332859
vt 0.726505 0.414898
vt 0.558125 0.867756
vt 0.616311 0.783476
vt 0.616311 0.867756
vt 0.656493 0.220511
vt 0.724167 0.159797
vt 0.658565 0.225523
vt 0.558125 0.783476
vt 0.616311 0.704107
vt 0.844347 0.250820
vt 0.786182 0.250820
vt 0.500186 0.386442
vt 0.567860 0.220511
vt 0.500186 0.159797
vt 0.505188 0.157721
vt 0.567860 0.006133
vt 0.658565 0.001122
vt 0.656493 0.006133
vt 0.500186 0.293492
vt 0.565789 0.227767
vt 0.719166 0.068923
vt 0.719166 0.157721
vt 0.658565 0.227767
vt 0.995242 0.710691
vt 0.988435 0.627612
vt 0.995242 0.627612
vt 0.995242 0.971924
vt 0.988435 0.883704
vt 0.995242 0.883704
vt 0.981559 0.454148
vt 0.987397 0.540022
vt 0.980593 0.540022
vt 0.988435 0.800624
vt 0.995242 0.800624
vt 0.995242 0.798912
vt 0.988435 0.710691
vt 0.988363 0.625897
vt 0.981559 0.625897
vt 0.995244 0.625897
vt 0.989405 0.540022
vt 0.996209 0.540022
vt 0.988440 0.454148
vt 0.995244 0.454148
vt 0.565789 0.452167
vt 0.658565 0.452167
vt 0.724167 0.066847
vt 0.500186 0.066847
vt 0.505188 0.068923
vt 0.565789 0.001122
vt 0.724167 0.293492
vt 0.724167 0.386442
vt 0.565789 0.225523
vt 0.553526 0.868925
vt 0.578112 0.868925
vt 0.553526 0.939086
vt 0.975281 0.000879
vt 0.931005 0.453965
vt 0.950460 0.258568
vt 0.975035 0.135769
vt 0.645976 0.985642
vt 0.616748 0.985642
vt 0.616748 0.915664
vt 0.524030 0.869219
vt 0.499189 0.869219
vt 0.815287 0.912904
vt 0.844515 0.912904
vt 0.844515 0.982882
vt 0.955846 0.453952
vt 0.975292 0.258352
vt 0.957491 0.702938
vt 0.928273 0.702938
vt 0.928273 0.632777
vt 0.844347 0.414898
vt 0.499357 0.704107
vt 0.784669 0.414898
vt 0.558125 0.704107
vt 0.988435 0.971924
vt 0.988362 0.454148
vt 0.988436 0.798912
vt 0.988440 0.625897
vt 0.578112 0.939086
vt 0.548895 0.939086
vt 0.548895 0.868925
vt 0.914738 0.357643
vt 0.893085 0.258325
vt 0.947035 0.258325
vt 0.955095 0.136795
vt 0.979691 0.136795
vt 0.979691 0.206772
vt 0.659560 0.875219
vt 0.701883 0.705343
vt 0.701883 0.914265
vt 0.785830 0.874792
vt 0.827905 0.705325
vt 0.827905 0.911518
vt 0.702302 0.744979
vt 0.743651 0.914625
vt 0.739123 0.915606
vt 0.602991 0.939086
vt 0.578404 0.939086
vt 0.578404 0.868925
vt 0.332547 0.357709
vt 0.166520 0.142291
vt 0.142026 0.333169
vt 0.357040 0.166831
vt 0.616814 0.743385
vt 0.659137 0.913261
vt 0.654616 0.914265
vt 0.828326 0.874792
vt 0.870401 0.705325
vt 0.870401 0.911518
vt 0.850265 0.040096
vt 0.892588 0.209972
vt 0.888067 0.210976
vt 0.744064 0.744979
vt 0.785413 0.914625
vt 0.780885 0.915606
vt 0.850265 0.383955
vt 0.892588 0.214079
vt 0.892588 0.423001
vt 0.810362 0.982882
vt 0.785766 0.982882
vt 0.785766 0.912904
vt 0.950031 0.028629
vt 0.950031 0.128207
vt 0.914730 0.028629
vt 0.985380 0.731843
vt 0.985380 0.831161
vt 0.950065 0.731843
vt 0.930597 0.481918
vt 0.930597 0.581496
vt 0.895295 0.481918
vt 0.898098 0.652646
vt 0.873512 0.652646
vt 0.873512 0.582485
vt 0.950053 0.258325
vt 0.950053 0.357643
vt 0.950053 0.385561
vt 0.925457 0.385561
vt 0.920824 0.385561
vt 0.955095 0.206772
vt 0.950462 0.206772
vt 0.950462 0.136795
vt 0.697362 0.704339
vt 0.823381 0.704325
vt 0.743651 0.704345
vt 0.602991 0.868925
vt 0.607622 0.868925
vt 0.607622 0.939086
vt 0.496595 0.373762
vt 0.357040 0.333169
vt 0.447077 0.423374
vt 0.427321 0.403581
vt 0.422583 0.447913
vt 0.373064 0.497525
vt 0.402827 0.428121
vt 0.002471 0.126238
vt 0.142026 0.166831
vt 0.051989 0.076626
vt 0.071745 0.096419
vt 0.076483 0.052087
vt 0.126002 0.002475
vt 0.096239 0.071879
vt 0.051989 0.423374
vt 0.002471 0.373762
vt 0.071745 0.403581
vt 0.126002 0.497525
vt 0.166520 0.357709
vt 0.076483 0.447913
vt 0.096239 0.428120
vt 0.373064 0.002475
vt 0.332547 0.142292
vt 0.422583 0.052087
vt 0.402827 0.071880
vt 0.447077 0.076626
vt 0.496595 0.126238
vt 0.427321 0.096419
vt 0.659137 0.704339
vt 0.865877 0.704325
vt 0.892588 0.001050
vt 0.785413 0.704345
vt 0.888067 0.213075
vt 0.810362 0.912904
vt 0.814994 0.912904
vt 0.814994 0.982882
vt 0.893085 0.128207
vt 0.920814 0.000638
vt 0.925445 0.000638
vt 0.950031 0.000638
vt 0.928412 0.831161
vt 0.956152 0.703925
vt 0.960784 0.703925
vt 0.985380 0.703925
vt 0.873650 0.581496
vt 0.901380 0.453927
vt 0.906011 0.453927
vt 0.930597 0.453927
vt 0.898098 0.582485
vt 0.902729 0.582485
vt 0.902729 0.652646
vn 0.0000 0.0000 1.0000
vn 1.0000 0.0000 0.0000
vn -1.0000 0.0000 0.0000
vn -0.0000 0.0000 -1.0000
vn 0.0000 -1.0000 0.0000
vn 0.0000 1.0000 0.0000
vn -0.3068 0.0000 -0.9518
vn 0.9518 0.0000 -0.3068
vn 0.3068 0.0000 0.9518
vn -0.9518 0.0000 0.3068
vn 0.9518 0.0000 0.3068
vn -0.9518 0.0000 -0.3068
vn 0.3068 0.0000 -0.9518
vn -0.3068 0.0000 0.9518
vn 0.3827 0.0000 -0.9239
vn 0.9239 0.0000 -0.3827
vn 0.9239 0.0000 0.3827
vn 0.3827 0.0000 0.9239
vn -0.3827 0.0000 0.9239
vn -0.9239 0.0000 0.3827
vn -0.1479 -0.9223 0.3570
vn -0.9239 0.0000 -0.3827
vn -0.3827 0.0000 -0.9239
vn -0.1479 0.9223 0.3570
vn -0.3570 -0.9223 -0.1479
vn 0.3570 -0.9223 -0.1479
vn 0.1479 0.9223 0.3570
vn 0.3570 0.9223 0.1479
vn 0.1479 -0.9223 0.3570
vn 0.3570 0.9223 -0.1479
vn -0.3570 0.9223 0.1479
vn -0.3570 0.9223 -0.1479
vn 0.3570 -0.9223 0.1479
vn -0.1479 -0.9223 -0.3570
vn 0.1479 -0.9223 -0.3570
vn -0.1479 0.9223 -0.3570
vn 0.1479 0.9223 -0.3570
vn -0.3570 -0.9223 0.1479
vn 0.0133 0.5021 -0.8647
vn -0.8647 0.5021 -0.0133
vn 0.0000 0.9771 0.2129
vn 0.0000 0.9771 -0.2129
vn 0.2129 0.9771 0.0000
vn -0.2129 0.9771 0.0000
vn 0.8647 0.5021 0.0133
vn -0.0133 0.5021 0.8647
vn -0.8647 0.5021 0.0133
vn 0.0133 0.5021 0.8647
vn -0.0133 0.5021 -0.8647
vn 0.8647 0.5021 -0.0133
s off
f 58/1/1 1/2/1 59/3/1
f 49/4/2 3/5/2 50/6/2
f 90/7/3 2/8/3 89/9/3
f 92/10/4 4/11/4 93/12/4
f 36/13/5 9/14/5 18/15/5
f 32/16/6 6/17/6 20/18/6
f 30/19/6 10/20/6 28/21/6
f 34/22/5 5/23/5 22/24/5
f 34/22/5 57/25/5 58/26/5
f 33/27/5 96/28/5 92/29/5
f 35/30/5 34/22/5 33/27/5
f 7/31/5 33/27/5 21/32/5
f 33/27/5 34/22/5 90/33/5
f 12/34/6 29/35/6 27/36/6
f 8/37/6 31/38/6 15/39/6
f 11/40/5 35/30/5 13/41/5
f 87/42/5 49/43/5 36/13/5
f 48/44/6 41/45/6 47/46/6
f 57/47/1 1/2/1 58/1/1
f 86/48/1 85/49/1 84/50/1
f 97/51/2 99/52/2 101/53/2
f 1/2/1 56/54/1 59/3/1
f 72/55/4 79/56/4 80/57/4
f 127/58/6 125/59/6 123/60/6
f 95/61/3 103/62/3 104/63/3
f 87/64/2 3/5/2 49/4/2
f 3/5/2 88/65/2 50/6/2
f 70/66/3 2/8/3 90/7/3
f 2/8/3 71/67/3 89/9/3
f 96/68/4 4/11/4 92/10/4
f 4/11/4 91/69/4 93/12/4
f 36/13/5 25/70/5 9/14/5
f 32/16/6 23/71/6 6/17/6
f 30/19/6 19/72/6 10/20/6
f 34/22/5 17/73/5 5/23/5
f 36/13/5 18/15/5 57/25/5
f 18/15/5 64/74/5 60/75/5
f 57/25/5 18/15/5 60/75/5
f 69/76/5 17/73/5 65/77/5
f 17/73/5 34/22/5 58/26/5
f 65/77/5 17/73/5 58/26/5
f 34/22/5 36/13/5 57/25/5
f 33/27/5 14/78/5 96/28/5
f 14/78/5 99/79/5 97/80/5
f 96/28/5 14/78/5 97/80/5
f 102/81/5 13/41/5 94/82/5
f 13/41/5 35/30/5 92/29/5
f 94/82/5 13/41/5 92/29/5
f 35/30/5 33/27/5 92/29/5
f 35/30/5 36/13/5 34/22/5
f 7/31/5 14/78/5 33/27/5
f 74/83/5 21/32/5 75/84/5
f 21/32/5 33/27/5 90/33/5
f 75/84/5 21/32/5 90/33/5
f 34/22/5 22/24/5 70/85/5
f 22/24/5 79/86/5 72/87/5
f 70/85/5 22/24/5 72/87/5
f 34/22/5 70/85/5 90/33/5
f 12/34/6 16/88/6 29/35/6
f 8/37/6 24/89/6 31/38/6
f 11/40/5 26/90/5 35/30/5
f 35/30/5 26/90/5 87/42/5
f 26/90/5 85/91/5 86/92/5
f 87/42/5 26/90/5 86/92/5
f 55/93/5 25/70/5 52/94/5
f 25/70/5 36/13/5 49/43/5
f 52/94/5 25/70/5 49/43/5
f 36/13/5 35/30/5 87/42/5
f 48/44/6 42/95/6 41/45/6
f 82/96/1 83/97/1 84/50/1
f 83/97/1 88/98/1 3/99/1
f 3/99/1 87/100/1 86/48/1
f 83/97/1 3/99/1 86/48/1
f 84/50/1 83/97/1 86/48/1
f 100/101/2 98/102/2 101/53/2
f 98/102/2 91/103/2 4/104/2
f 4/104/2 96/105/2 97/51/2
f 98/102/2 4/104/2 97/51/2
f 101/53/2 98/102/2 97/51/2
f 81/106/4 73/107/4 80/57/4
f 73/107/4 71/108/4 2/109/4
f 2/109/4 70/110/4 72/55/4
f 73/107/4 2/109/4 72/55/4
f 80/57/4 73/107/4 72/55/4
f 123/60/6 121/111/6 122/112/6
f 122/112/6 128/113/6 127/58/6
f 127/58/6 126/114/6 125/59/6
f 125/59/6 124/115/6 123/60/6
f 123/60/6 122/112/6 127/58/6
f 102/116/3 94/117/3 104/63/3
f 94/117/3 92/118/3 95/61/3
f 104/63/3 94/117/3 95/61/3
f 92/118/3 93/119/3 95/61/3
f 24/120/7 7/121/7 21/122/7
f 16/123/8 11/124/8 13/125/8
f 28/126/9 9/127/9 25/128/9
f 20/129/10 5/130/10 17/131/10
f 84/132/2 85/133/2 27/134/2
f 10/135/11 18/136/11 9/137/11
f 8/138/12 14/139/12 7/140/12
f 80/141/3 79/142/3 23/143/3
f 12/144/13 26/145/13 11/146/13
f 6/147/14 22/148/14 5/149/14
f 62/150/1 64/151/1 19/152/1
f 106/153/15 107/154/15 105/155/15
f 108/156/16 109/157/16 107/158/16
f 110/159/17 111/160/17 109/157/17
f 112/161/18 113/162/18 111/163/18
f 114/164/19 115/165/19 113/162/19
f 116/166/20 117/167/20 115/168/20
f 116/169/21 133/170/21 134/171/21
f 118/172/22 119/173/22 117/167/22
f 120/174/23 105/155/23 119/175/23
f 126/114/24 141/176/24 125/59/24
f 118/177/25 136/178/25 120/179/25
f 108/180/26 131/181/26 110/182/26
f 125/59/27 140/183/27 124/115/27
f 124/115/28 139/184/28 123/60/28
f 112/185/29 133/170/29 114/186/29
f 123/60/30 137/187/30 121/111/30
f 131/188/17 140/189/17 132/190/17
f 134/191/20 143/192/20 135/193/20
f 132/194/18 141/195/18 133/196/18
f 135/193/22 144/197/22 136/198/22
f 129/199/16 139/200/16 131/188/16
f 133/196/19 142/201/19 134/202/19
f 136/203/23 138/204/23 130/205/23
f 130/205/15 137/206/15 129/207/15
f 127/58/31 142/208/31 126/114/31
f 128/113/32 143/209/32 127/58/32
f 110/182/33 132/210/33 112/185/33
f 120/179/34 130/211/34 106/212/34
f 106/212/35 129/213/35 108/180/35
f 128/113/36 138/214/36 144/215/36
f 122/112/37 137/187/37 138/214/37
f 116/169/38 135/216/38 118/177/38
f 101/217/4 99/218/4 15/219/4
f 24/120/7 8/220/7 7/121/7
f 16/123/8 12/221/8 11/124/8
f 28/126/9 10/222/9 9/127/9
f 20/129/10 6/223/10 5/130/10
f 85/133/2 26/224/2 27/134/2
f 27/134/2 45/225/2 82/226/2
f 82/226/2 84/132/2 27/134/2
f 10/135/11 19/227/11 18/136/11
f 8/138/12 15/228/12 14/139/12
f 79/142/3 22/229/3 23/143/3
f 23/143/3 43/230/3 81/231/3
f 81/231/3 80/141/3 23/143/3
f 12/144/13 27/232/13 26/145/13
f 6/147/14 23/233/14 22/148/14
f 64/151/1 18/234/1 19/152/1
f 19/152/1 39/235/1 63/236/1
f 63/236/1 62/150/1 19/152/1
f 106/153/15 108/237/15 107/154/15
f 108/156/16 110/159/16 109/157/16
f 110/159/17 112/238/17 111/160/17
f 112/161/18 114/164/18 113/162/18
f 114/164/19 116/239/19 115/165/19
f 116/166/20 118/172/20 117/167/20
f 116/169/21 114/186/21 133/170/21
f 118/172/22 120/240/22 119/173/22
f 120/174/23 106/153/23 105/155/23
f 126/114/24 142/208/24 141/176/24
f 118/177/25 135/216/25 136/178/25
f 108/180/26 129/213/26 131/181/26
f 125/59/27 141/176/27 140/183/27
f 124/115/28 140/183/28 139/184/28
f 112/185/29 132/210/29 133/170/29
f 123/60/30 139/184/30 137/187/30
f 131/188/17 139/200/17 140/189/17
f 134/191/20 142/241/20 143/192/20
f 132/194/18 140/242/18 141/195/18
f 135/193/22 143/192/22 144/197/22
f 129/199/16 137/243/16 139/200/16
f 133/196/19 141/195/19 142/201/19
f 136/203/23 144/244/23 138/204/23
f 130/205/15 138/204/15 137/206/15
f 127/58/31 143/209/31 142/208/31
f 128/113/32 144/215/32 143/209/32
f 110/182/33 131/181/33 132/210/33
f 120/179/34 136/178/34 130/211/34
f 106/212/35 130/211/35 129/213/35
f 128/113/36 122/112/36 138/214/36
f 122/112/37 121/111/37 137/187/37
f 116/169/38 134/171/38 135/216/38
f 99/218/4 14/245/4 15/219/4
f 15/219/4 37/246/4 100/247/4
f 100/247/4 101/217/4 15/219/4
f 61/248/3 56/249/3 1/250/3
f 24/251/3 21/252/3 74/253/3
f 31/254/39 44/255/39 48/256/39
f 32/257/40 40/258/40 42/259/40
f 31/260/3 37/261/3 15/262/3
f 20/263/1 17/264/1 69/265/1
f 41/45/41 42/95/41 56/266/41
f 91/267/42 48/44/42 47/46/42
f 47/46/43 41/45/43 88/268/43
f 48/44/44 71/269/44 42/95/44
f 32/270/1 43/271/1 23/272/1
f 29/273/45 38/274/45 47/275/45
f 29/276/4 45/277/4 27/278/4
f 30/279/2 39/280/2 19/281/2
f 30/282/46 46/283/46 41/284/46
f 28/285/2 25/286/2 55/287/2
f 75/288/1 90/289/1 78/290/1
f 65/291/2 58/292/2 66/293/2
f 52/294/4 49/295/4 51/296/4
f 16/297/4 13/298/4 102/299/4
f 57/300/3 60/301/3 1/250/3
f 60/301/3 64/302/3 62/303/3
f 62/303/3 63/304/3 61/248/3
f 60/301/3 62/303/3 61/248/3
f 1/250/3 60/301/3 61/248/3
f 74/253/3 76/305/3 24/251/3
f 76/305/3 77/306/3 24/251/3
f 77/306/3 44/307/3 24/251/3
f 31/254/4 24/308/4 44/255/4
f 32/257/3 20/309/3 40/258/3
f 31/260/47 48/310/47 37/261/47
f 69/265/1 67/311/1 20/263/1
f 67/311/1 68/312/1 20/263/1
f 68/312/1 40/313/1 20/263/1
f 42/95/41 40/314/41 59/315/41
f 40/314/41 68/316/41 66/317/41
f 40/314/41 66/317/41 59/315/41
f 63/318/41 39/319/41 61/320/41
f 39/319/41 41/45/41 56/266/41
f 61/320/41 39/319/41 56/266/41
f 42/95/41 59/315/41 56/266/41
f 47/46/42 38/321/42 93/322/42
f 38/321/42 103/323/42 95/324/42
f 38/321/42 95/324/42 93/322/42
f 100/325/42 37/326/42 98/327/42
f 37/326/42 48/44/42 91/267/42
f 98/327/42 37/326/42 91/267/42
f 47/46/42 93/322/42 91/267/42
f 82/328/43 45/329/43 83/330/43
f 45/329/43 47/46/43 88/268/43
f 83/330/43 45/329/43 88/268/43
f 41/45/43 46/331/43 50/332/43
f 46/331/43 53/333/43 51/334/43
f 50/332/43 46/331/43 51/334/43
f 41/45/43 50/332/43 88/268/43
f 48/44/44 44/335/44 89/336/44
f 44/335/44 77/337/44 78/338/44
f 44/335/44 78/338/44 89/336/44
f 81/339/44 43/340/44 73/341/44
f 43/340/44 42/95/44 71/269/44
f 73/341/44 43/340/44 71/269/44
f 48/44/44 89/336/44 71/269/44
f 32/270/48 42/342/48 43/271/48
f 29/273/2 16/343/2 38/274/2
f 29/276/49 47/344/49 45/277/49
f 30/279/50 41/345/50 39/280/50
f 30/282/1 28/346/1 46/283/1
f 55/287/2 54/347/2 28/285/2
f 54/347/2 53/348/2 28/285/2
f 53/348/2 46/349/2 28/285/2
f 89/350/1 78/290/1 90/289/1
f 78/290/1 77/351/1 76/352/1
f 76/352/1 74/353/1 75/288/1
f 78/290/1 76/352/1 75/288/1
f 59/354/2 66/293/2 58/292/2
f 66/293/2 68/355/2 67/356/2
f 67/356/2 69/357/2 65/291/2
f 66/293/2 67/356/2 65/291/2
f 50/358/4 51/296/4 49/295/4
f 51/296/4 53/359/4 54/360/4
f 54/360/4 55/361/4 52/294/4
f 51/296/4 54/360/4 52/294/4
f 102/299/4 104/362/4 16/297/4
f 104/362/4 103/363/4 16/297/4
f 103/363/4 38/364/4 16/297/4
